<?xml version="1.0" encoding="UTF-8"?>
<!-- Created with Inkscape (http://www.inkscape.org/) -->
<svg width="508" height="308" version="1.1" viewBox="0 0 508 308" xmlns="http://www.w3.org/2000/svg" xmlns:cc="http://creativecommons.org/ns#" xmlns:dc="http://purl.org/dc/elements/1.1/" xmlns:rdf="http://www.w3.org/1999/02/22-rdf-syntax-ns#">
 <metadata>
  <rdf:RDF>
   <cc:Work rdf:about="">
    <dc:format>image/svg+xml</dc:format>
    <dc:type rdf:resource="http://purl.org/dc/dcmitype/StillImage"/>
    <dc:title/>
   </cc:Work>
  </rdf:RDF>
 </metadata>
 <g stroke-width="1.3333">
  <path d="m2.2535e-8 154v-154h508v308h-508z" fill="#fefefe"/>
  <path d="m2.2535e-8 155.99v-152.01l7 3.9032c3.85 2.1468 14.59 8.0824 23.867 13.19l16.867 9.2869 25.43-13.943 25.43-13.943 24.838 13.583c22.955 12.553 25.105 13.462 28.369 11.984 1.942-0.87933 13.887-7.2964 26.545-14.26l23.014-12.661 20.986 11.611c11.542 6.3862 23.164 12.805 25.826 14.264l4.8401 2.6522 24.978-13.711c13.738-7.5412 25.7-13.711 26.583-13.711 0.8827 0 12.713 6.1 26.289 13.556 13.576 7.4556 24.955 13.556 25.286 13.556s11.604-6 25.051-13.333 25.109-13.333 25.914-13.333 12.993 6.3111 27.085 14.025l25.622 14.025 18.423-10.152c10.132-5.5835 20.973-11.62 24.089-13.414l5.6667-3.2624v152.06c0 150.25-0.0312 152.06-2.6192 152.06-1.4406 0-8.4906-3.2176-15.667-7.1503-7.1761-3.9327-16.947-9.2654-21.714-11.851l-8.6667-4.7003-21.333 11.837c-20.89 11.591-21.52 11.837-30.295 11.851-8.7839 0.0133-9.3892-0.22174-30.431-11.816l-21.469-11.83-21.569 11.824c-21.074 11.552-21.775 11.824-30.516 11.83-8.6924 7e-3 -9.4937-0.29632-28.224-10.66-10.603-5.8666-20.21-11.024-21.349-11.461-1.2286-0.47144-10.524 3.8679-22.85 10.667-20.095 11.084-21.064 11.461-29.44 11.461-8.3856 0-9.3252-0.36737-29.555-11.556-11.492-6.3556-21.511-11.555-22.265-11.554-0.75425 6e-4 -10.843 5.2006-22.42 11.556-20.285 11.135-21.359 11.554-29.618 11.554-8.2594 0-9.3333-0.41896-29.618-11.554-11.577-6.355-21.648-11.555-22.382-11.556-0.73333-5.9e-4 -10.735 5.1989-22.227 11.554-11.491 6.3555-21.541 11.556-22.333 11.556-1.0225 0-1.4398-44.063-1.4398-152.01z" fill="#ebebeb"/>
  <path d="m2.2535e-8 156.63v-151.37l4.3333 2.2314c2.3833 1.2273 12.849 6.9427 23.257 12.701s19.498 10.47 20.199 10.47c0.70153 0 12.108-6 25.347-13.333 13.239-7.3333 24.703-13.333 25.475-13.333s12.284 6.032 25.583 13.404c14.025 7.775 25.027 13.079 26.199 12.629 1.1109-0.42631 12.664-6.7583 25.674-14.071 13.01-7.3128 24.25-13.296 24.98-13.296 0.72936 0 12.722 6.3023 26.651 14.005l25.325 14.005 23.153-12.851c12.734-7.0681 24.435-13.435 26.002-14.149 2.379-1.084 7.0598 1.0482 28.363 12.92l25.514 14.218 25.536-14.083 25.536-14.083 25.231 14.009c13.877 7.7049 26.167 14.009 27.311 14.009s11.137-5.0192 22.206-11.154 21.475-11.856 23.125-12.714l3-1.5599v151.38c0 110.03-0.40424 151.38-1.48 151.38-0.814 0-11.518-5.5966-23.786-12.437l-22.306-12.437-22.547 12.425c-30.311 16.703-28.903 16.701-58.82 0.11546-12.236-6.7833-22.581-12.232-22.988-12.108-0.40699 0.12426-10.589 5.6742-22.627 12.333-29.502 16.32-28.534 16.319-57.447 0.10756-11.771-6.6-21.886-12-22.476-12-0.59074 0-10.713 5.4-22.493 12-29.062 16.282-28.002 16.292-57.986-0.56911l-22.289-12.534-22.617 12.552c-20.627 11.447-23.241 12.551-29.711 12.547-4.4913-3e-3 -8.5618-0.89373-11.094-2.4273-2.2-1.3323-8.2-4.7138-13.333-7.5146s-13.327-7.3463-18.209-10.101l-8.8756-5.009-22.458 12.493c-12.352 6.8714-22.908 12.509-23.458 12.529-0.55 0.0193-1-68.08-1-151.33z" fill="#e5e5e5"/>
  <path d="m2.2535e-8 250.62v-57.38l3 1.5847c1.65 0.87157 10.2 5.6007 19 10.509 8.8 4.9085 17.35 9.6376 19 10.509l3 1.5847-0.04262-33.047-0.04262-33.047-21.624-11.444-21.624-11.444-0.34659-61.461-0.34659-61.461 23.436 13.038 23.436 13.038-0.13044 32.554-0.13044 32.554 24.862 13.81c26.256 14.584 28.189 15.043 26.59 6.3183-0.38657-2.1083-0.70285-16.011-0.70285-30.895v-27.062l-24-12.877c-13.2-7.0822-24-13.279-23.999-13.772s11.119-7.0776 24.707-14.634l24.706-13.739 25.93 14.406 25.93 14.406 0.0299 32 0.0299 32 17.666 9.9554c9.7164 5.4755 20.816 11.671 24.666 13.767l7 3.8114v-66.591l-23.621-12.669c-12.992-6.9679-23.793-13.183-24.002-13.81-0.20926-0.62778 10.71-7.3174 24.265-14.866l24.646-13.724 25.974 14.397 25.974 14.397 0.0492 32.686 0.0492 32.686 24.679 13.648c13.574 7.5062 24.974 13.648 25.333 13.648s0.63908-14.85 0.62095-33l-0.033-33-24.762-13.158c-19.923-10.587-24.411-13.472-22.967-14.766 2.6509-2.3754 46.692-26.522 48.364-26.516 0.78685 3e-3 12.36 6.1026 25.718 13.556 13.358 7.453 25.068 13.551 26.022 13.551 0.95402 0 12.396-6 25.426-13.333 13.03-7.3333 24.42-13.332 25.311-13.33 0.89102 2e-3 9.72 4.5552 19.62 10.119s21.44 11.918 25.644 14.12l7.6436 4.0043 0.35636 32.87 0.35636 32.87 23.333 12.793 23.333 12.793 0.34692 60.213c0.1908 33.117 0.0161 60.213-0.38801 60.213-0.4042 0-10.821-5.4-23.148-12-12.327-6.6-22.792-12-23.255-12s-1.0024 14.23-1.199 31.622l-0.35747 31.622-22 12.323c-14.827 8.305-23.413 12.341-26.333 12.378l-4.3333 0.0553-0.012-31-0.012-31-25.298-13.504-25.298-13.504-0.35667 32.168-0.35667 32.168-22 12.314c-15.033 8.4141-23.372 12.321-26.333 12.336l-4.3342 0.02182v-62.185l-24.515-12.907c-13.483-7.0991-24.872-12.907-25.31-12.907-0.43729 0-0.95574 14.476-1.1521 32.17l-0.35704 32.17-21.264 11.83c-14.743 8.2022-22.614 11.83-25.667 11.83h-4.4023v-62.457l-24.294-13.105c-13.362-7.2077-24.762-13.305-25.333-13.549-0.57162-0.24445-1.0393 14.172-1.0393 32.036v32.48l-22.182 12.298c-12.741 7.0638-23.726 12.298-25.811 12.298h-3.6294l-0.92957-15.892c-0.51126-8.7407-0.81973-22.691-0.6855-31l0.24407-15.108-7.17-4.1062c-3.9435-2.2584-15.11-8.3291-24.813-13.49l-17.643-9.3842-0.35664 32.047-0.35664 32.047-22.468 12.444c-12.357 6.8439-22.707 12.444-23 12.444-0.29252 0-0.53186-25.821-0.53186-57.38zm147.69-66.201l-0.35663-32.915-24-13.057c-13.2-7.1815-24.45-13.07-25-13.085s-1 14.337-1 31.893c0 23.587 0.42346 32.203 1.6219 33 4.1088 2.7326 47.161 26.902 48.068 26.985 0.56282 0.0516 0.86282-14.718 0.66667-32.821zm104 0.16895-0.35663-32.746-10.667-5.6577c-5.8667-3.1117-17.117-9.1226-25-13.358l-14.333-7.7v65.006l24.333 13.544c13.383 7.4493 24.794 13.57 25.357 13.6 0.56282 0.0309 0.86282-14.679 0.66667-32.69zm102.98 0.16782v-32.578l-18.333-9.6702c-10.083-5.3186-21.13-11.312-24.549-13.318-3.4184-2.0061-6.5684-3.2944-7-2.8628-0.43157 0.43159-0.78469 14.936-0.78469 32.233v31.448l24.333 13.618c13.383 7.4897 24.783 13.638 25.333 13.663 0.55 0.0248 1-14.615 1-32.533zm104 0.0297v-32.548l-15.667-8.2833c-8.6167-4.5558-20.027-10.669-25.357-13.585l-9.6902-5.3017 0.35692 32.897 0.35692 32.897 23.333 13.113c12.833 7.2123 24.083 13.169 25 13.237 1.2912 0.0955 1.6667-7.2096 1.6667-32.425zm-52.31-93.6-0.35663-32.815-24.54-13.185c-13.497-7.2517-24.747-13.185-25-13.185-0.25311 0-0.45947 14.55-0.45858 32.333l1e-3 32.333 24.332 13.61c13.382 7.4853 24.792 13.635 25.355 13.667s0.86281-14.71 0.66667-32.758zm77.664-45.829c-12.088-6.5433-22.116-12.375-22.284-12.96-0.16748-0.58462 10.173-6.8428 22.979-13.907l23.284-12.844v25.844c0 14.214-0.45 25.826-1 25.804-0.55-0.0221-10.891-5.3937-22.979-11.937z" fill="#dedee0"/>
  <path d="m2.2535e-8 251.39v-56.854l8.3333 4.6556c27.122 15.153 35.109 19.211 36.024 18.306 0.5631-0.55673 0.8631-15.886 0.66667-34.065l-0.35716-33.053-8-4.2841c-4.4-2.3563-14.45-7.7243-22.333-11.929l-14.333-7.6448v-120.07l4.3333 2.6018c2.3833 1.431 12.883 7.2504 23.333 12.932l19 10.33v66.14l22.034 12.153c12.118 6.6839 23.518 12.717 25.333 13.407l3.2997 1.2546v66.115l21 11.552c11.55 6.3534 23.25 12.603 26 13.889l5 2.3376v63.473l-5 3.0915c-15.091 9.3305-40.325 22.275-43.424 22.275h-3.5761l-0.0222-31.667-0.0222-31.667-7.6445-4.0984c-25.098-13.456-41.635-21.902-42.882-21.902-0.9763 0-1.4355 10.24-1.45 32.333l-0.02123 32.333-13.645 7.5198c-7.505 4.1359-17.695 9.7409-22.645 12.456l-9 4.9359zm201.33 24.929v-31.68l-16.228-8.6531c-8.9251-4.7592-19.728-10.5-24.006-12.758-4.2782-2.2578-7.4165-4.4672-6.974-4.9097s-0.45479-0.47523-1.994-0.0727c-2.7887 0.72922-2.7986 0.61135-2.7986-33.389v-34.121l-4.3333-2.1915c-2.3833-1.2053-13.783-7.3099-25.333-13.566l-21-11.374v-65.82l-3.6667-1.8757c-9.7412-4.9831-38.699-20.492-41.493-22.223l-3.1602-1.957 5.8268-3.3149c3.2047-1.8232 10.027-5.5798 15.16-8.3481 5.1333-2.7683 13.359-7.2573 18.28-9.9756l8.9462-4.9424 25.36 13.759 25.36 13.759 0.0303 32.667 0.0302 32.667 7.6635 3.9937c4.215 2.1965 13.664 7.3014 20.997 11.344s15.583 8.532 18.333 9.9762l5 2.6258v65.86l7.6667 4.2179c4.2167 2.3199 12.564 6.8513 18.549 10.07 5.9853 3.2186 13.785 7.5572 17.333 9.6414l6.451 3.7893 0.35678 32.122 0.35676 32.122-21.833 12.119c-12.079 6.7045-23.407 12.119-25.357 12.119h-3.5237zm101.33-0.0195v-31.7l-25.311-13.713-25.311-13.713-0.35605-33.39-0.35607-33.39-6-3.2512c-3.3-1.7881-14.55-7.8144-25-13.392l-19-10.14-0.0412-33.472-0.0412-33.472-22.28-12c-12.254-6.6-23.036-12.194-23.959-12.431-0.92318-0.23711-1.6621-0.83711-1.642-1.3333 0.0345-0.85332 44.435-25.817 47.323-26.608 0.74789-0.2046 8.6483 3.8037 17.557 8.9073 8.9082 5.1036 20.446 11.478 25.64 14.166l9.4434 4.887v65.847l25.333 13.863 25.333 13.863v65.91l25.333 13.771 25.333 13.771v64.206l-22.039 12.258c-13.949 7.7583-23.493 12.258-26 12.258h-3.9611v-31.7zm-89.922-155.71c2.4404-1.9552 2.3979-1.9829-0.74516-0.48606-4.0814 1.9438-4.8378 2.5596-3.1437 2.5596 0.7154 0 2.4654-0.9331 3.8889-2.0736zm193.92 155.69v-31.718l-9-4.7197c-4.95-2.5958-14.4-7.6328-21-11.193-6.6-3.5604-13.341-7.1727-14.98-8.0273-1.6389-0.85462-2.6296-1.9041-2.2014-2.3322 0.42811-0.42811-0.47071-0.45174-1.9974-0.0525-2.7523 0.71975-2.7788 0.43639-3.1319-33.567l-0.35615-34.293-21.825-11.7c-12.004-6.4352-22.204-12.221-22.667-12.857-0.46306-0.63594-1.7419-1.1562-2.8419-1.1562-1.7161 0-2.0508-4.8257-2.3577-34l-0.35771-34-23.309-12.61c-12.82-6.9354-23.305-12.935-23.301-13.333 9e-3 -0.78685 2.7036-2.3885 18.353-10.91 5.6676-3.086 13.305-7.328 16.971-9.4265 12.48-7.1428 11.228-7.0644 21.391-1.338 5.1015 2.8743 12.876 7.1922 17.276 9.5952 4.4 2.4031 11.75 6.4428 16.333 8.9772l8.3333 4.608v65.934l11.667 6.5563c16.305 9.1627 26.719 14.864 33.333 18.246l5.6667 2.8983 0.014 32.734 0.014 32.734 14.986 8.223c8.2423 4.5227 19.924 10.823 25.96 14l10.974 5.777 0.0257 32.073 0.0257 32.073-22.106 12.26c-13.728 7.6142-23.581 12.26-26 12.26h-3.8944zm95.333-35.936c-2.2-1.1206-11.424-6.157-20.497-11.192-9.0733-5.0349-17.059-9.1544-17.745-9.1544-0.68662 0-0.91215-0.54404-0.50119-1.209 0.41096-0.66494-0.44336-0.89765-1.8985-0.51712-2.5813 0.67503-2.6544-0.14141-3.0018-33.555l-0.35615-34.246-6.6667-3.6691c-3.6667-2.018-13.267-7.1517-21.333-11.408s-15.498-8.4028-16.514-9.214-2.8161-1.4838-4-1.4949c-1.9066-0.0178-2.2288-3.8922-2.8193-33.9l-0.66667-33.88-20.667-11.187c-11.367-6.153-22.011-11.921-23.655-12.818-2.8191-1.5382-2.3076-2.0064 9.0324-8.266 6.6114-3.6495 17.405-9.7697 23.985-13.6l11.965-6.9648 17.67 9.809c9.7183 5.3949 21.46 11.829 26.093 14.298l8.4233 4.4895-0.1316 32.856-0.1316 32.856 10.375 5.6294c5.7063 3.0962 16.9 9.3032 24.876 13.793l14.501 8.164-0.5009 58.344c-0.2755 32.089-0.8009 58.283-1.1676 58.209-0.36667-0.0748-2.4667-1.0528-4.6667-2.1734zm-30.631-26.756c-0.41052-0.41052-1.4864-8.5e-4 -2.3908 0.91037-1.307 1.3168-1.1539 1.47 0.7464 0.7464 1.315-0.5007 2.055-1.2462 1.6444-1.6568zm21.298-165.09c-7.3333-4.0508-17.145-9.3654-21.805-11.81-9.8913-5.19-11.612-3.1231 14.471-17.384 9.1667-5.0119 17.867-9.8762 19.333-10.809 2.6316-1.6746 2.6667-1.3737 2.6667 22.905 0 13.531-0.3 24.571-0.66666 24.533-0.36667-0.0377-6.6667-3.383-14-7.4338z" fill="#dcdcdd"/>
  <path d="m0.3098 275.31 0.35687-32.91 20.667-11.162c11.367-6.1391 21.428-11.18 22.357-11.201 1.3289-0.0305 1.6143 6.7294 1.3333 31.581l-0.35746 31.619-14.667 8.0824c-8.0667 4.4454-18.127 10.067-22.357 12.492l-7.6902 4.4095zm97.024 2.1844c0-22.787 0.4216-30.848 1.6667-31.866 2.5741-2.104 47.836-25.909 48.309-25.408 0.22989 0.24382 0.62937 14.451 0.88773 31.571l0.46974 31.128-22.37 12.539c-12.303 6.8965-23.853 12.539-25.667 12.539h-3.2971zm104.31-0.40418 0.35791-30.908 6-3.509c3.3-1.9299 14.261-7.867 24.357-13.194l18.357-9.6846-0.35726 32.3-0.35727 32.3-21.167 11.801c-11.642 6.4905-22.603 11.801-24.358 11.801h-3.1905zm102.36-0.20562v-31.113l23.606-12.553c12.983-6.9044 24.383-12.747 25.333-12.985 1.3773-0.34378 1.7272 5.9318 1.7272 30.983v31.414l-5 3.0915c-13.736 8.4928-40.191 22.275-42.757 22.275-2.9072 0-2.9094-0.02351-2.9094-31.113zm104-0.0133v-31.127l24.024-12.873c13.213-7.0804 24.624-12.873 25.357-12.873 0.86224 0 1.2075 11.196 0.97644 31.664l-0.35747 31.664-22 12.314c-12.1 6.7725-23.35 12.324-25 12.336l-3 0.02185zm-362.67-91.911v-32.656l25-13.365c13.75-7.351 25.187-13.183 25.416-12.96 0.31564 0.30813 0.57432 54.345 0.30124 62.928-0.0431 1.3536-41.786 25.37-48.383 27.837-2.1825 0.8161-2.3333-1.2391-2.3333-31.784zm104-0.17784v-32.549l14.333-7.6394c7.8833-4.2017 19.283-10.309 25.333-13.572l11-5.9328v65.306l-24.423 13.468c-13.433 7.4073-24.833 13.468-25.333 13.468-0.50082 0-0.9106-14.647-0.9106-32.549zm104.31-0.1337 0.35693-32.964 23.333-12.492c12.833-6.8706 23.783-12.5 24.333-12.51s1 14.326 1 31.859v31.877l-17.667 9.6472c-9.7167 5.3059-20.827 11.425-24.69 13.597l-7.0236 3.9498zm102.67-0.0844 0.35663-32.767 24.517-13.233c13.484-7.2782 24.734-13.233 25-13.233 0.26551 0 0.4823 14.55 0.48175 32.333l-1e-3 32.333-24.576 13.667c-13.517 7.5167-24.927 13.667-25.356 13.667-0.42895 0-0.61942-14.745-0.42327-32.767zm103.27 31.906c-0.50417-0.50422-0.91666-14.843-0.91666-31.865 0-23.137 0.42062-31.294 1.6667-32.32 1.8246-1.5024 46.152-25.621 47.088-25.621 0.31811 0 0.57836 14.584 0.57836 32.41v32.41l-22.813 12.59c-26.157 14.436-24.41 13.59-25.604 12.396zm-154.54-107.38c-0.20707-8.3032-0.19558-23.224 0.0255-33.157l0.40202-18.06 23.392-12.607c12.866-6.9337 23.935-12.807 24.598-13.051 0.69844-0.25739 1.206 13.313 1.206 32.243v32.687l-23.569 13.091c-12.963 7.1999-24.044 13.284-24.624 13.521-0.57988 0.23654-1.2238-6.3635-1.4308-14.667zm103.27-17.976 0.3569-33.121l24-12.961c13.2-7.1284 24.461-12.978 25.024-13 0.56304-0.0216 0.86304 14.491 0.66667 32.25l-0.35704 32.29-14 7.8106c-7.7 4.2958-18.961 10.52-25.024 13.831l-11.024 6.0205zm-309.64-0.15795v-31.704l24.479-12.963c13.463-7.1296 24.874-12.963 25.357-12.963 0.4832 0 0.71768 14.167 0.52108 31.482l-0.35746 31.482-23.798 13.185c-13.089 7.2518-24.339 13.185-25 13.185-0.67951 0-1.2016-13.775-1.2016-31.704zm102.67-0.13295c0-23.87 0.41706-32.17 1.6667-33.169 2.3372-1.8677 46.931-25.661 48.094-25.661 0.52418 0 0.79238 14.503 0.596 32.228l-0.35704 32.228-23.333 13.088c-12.833 7.1986-24.083 13.096-25 13.105-1.2873 0.0128-1.6667-7.2308-1.6667-31.82zm-201.32-2.4966l0.012028-33 21.788-11.667c11.983-6.4167 22.478-11.667 23.321-11.667 1.7624 0 2.2225 60.852 0.48078 63.592-0.90508 1.4236-43.386 25.742-44.968 25.742-0.35536 0-0.6407-14.85-0.63409-33z" fill="#d2d2d3"/>
  <path d="m98.975 277.17 0.3579-30.831 23.333-12.498c12.833-6.8737 23.794-12.5 24.358-12.503 0.56352-3e-3 0.86352 13.853 0.66667 30.79l-0.35791 30.795-17.333 9.6403c-9.5333 5.3022-19.602 10.945-22.374 12.539-9.3758 5.391-9.0498 6.4437-8.6507-27.932zm104 0.0424 0.3579-30.788 22-12.007c12.1-6.6036 22.602-12.256 23.337-12.561 0.86447-0.35864 1.4819 10.405 1.7474 30.461l0.41048 31.016-22.525 12.333c-12.389 6.7833-23.236 12.333-24.105 12.333-1.1832 0-1.4905-7.7403-1.2226-30.788zm101.02 0.42996v-30.358l23.906-12.975c13.148-7.1363 24.248-12.975 24.667-12.975 0.41859 0 0.73512 13.95 0.70344 31l-0.0576 31-22.481 12.333c-12.365 6.7833-23.439 12.333-24.609 12.333-1.8859 0-2.1278-3.4513-2.1278-30.358zm104-0.0396v-30.583l18.333-9.7787c10.083-5.3783 21.183-11.442 24.667-13.475l6.3333-3.6961-0.0397 31.632-0.0397 31.632-22.17 12c-12.194 6.6-23.276 12.192-24.627 12.426-2.3277 0.40374-2.4567-1.18-2.4567-30.157zm-407.69-2.3328 0.35778-31.665 20.667-11.124c11.367-6.1182 21.117-11.129 21.667-11.135 0.55-7e-3 1 13.75 1 30.57v30.582l-11.667 6.5553c-6.4167 3.6054-16.328 9.1039-22.024 12.219l-10.358 5.6635zm46.358-90.868v-31.829l8.3333-4.2207c4.5833-2.3214 15.683-8.1693 24.667-12.995l16.333-8.7746v62.564l-16.333 8.9324c-8.9833 4.9128-20.083 11.007-24.667 13.542l-8.3333 4.6094zm104.04 0.0259 0.0359-31.76 23.186-12.333c12.752-6.7833 23.686-12.33 24.297-12.325 0.61133 4e-3 1.1115 13.828 1.1115 30.72v30.712l-14 7.6578c-7.7 4.2118-18.65 10.23-24.333 13.374l-10.333 5.7158 0.0359-31.76zm205.3 0.46612v-31.392l17-9.2268c9.35-5.0748 20.461-11.06 24.691-13.302l7.6905-4.0748-0.3572 31.439-0.35718 31.439-22.667 12.57c-12.467 6.9134-23.417 12.878-24.333 13.255-1.3055 0.53659-1.6667-6.117-1.6667-30.707zm104.31-0.30427 0.35775-31.65 22-11.933c12.1-6.5631 22.75-12.239 23.667-12.612 1.3052-0.53188 1.6667 6.0913 1.6667 30.54v31.219l-22.813 12.59c-12.547 6.9247-23.358 12.794-24.024 13.043-0.71115 0.26569-1.0636-12.616-0.85359-31.197zm-205.73 27.745c-0.0467-1.2833-0.0695-15.169-0.0505-30.856l0.0343-28.523 13.051-7.2548c12.104-6.7284 33.187-17.698 34.021-17.701 0.85598-3e-3 -0.52549 62.034-1.3882 62.341-0.52442 0.18681-10.709 5.7368-22.633 12.333-11.924 6.5965-21.965 11.994-22.314 11.994s-0.67268-1.05-0.71935-2.3333zm50.97-121.34-0.44857-31.662 24.115-12.878 24.115-12.878-0.0184 31.544-0.0184 31.544-22.977 12.667c-12.637 6.9667-23.279 12.814-23.648 12.995-0.36946 0.18053-0.8736-13.919-1.1203-31.333zm102.76 0.17532 0.3578-31.779 8.6667-4.7354c4.7667-2.6045 15.717-8.4698 24.333-13.034l15.667-8.2986v62.445l-19 10.312c-10.45 5.6715-21.561 11.787-24.691 13.59l-5.6911 3.2784zm-308.31-0.27323v-30.681l11-5.9387c6.05-3.2663 16.85-9.0667 24-12.89l13-6.951v61.125l-15.667 8.4373c-8.6167 4.6405-19.417 10.494-24 13.008l-8.3333 4.5709zm102.67-0.78814v-31.224l23.637-12.694c13.001-6.9815 23.78-12.551 23.954-12.377 0.17396 0.17395 0.39758 14.087 0.49697 30.918l0.18071 30.602-23.134 12.946c-12.724 7.1203-23.584 12.97-24.134 13-0.55 0.0297-1-13.997-1-31.17zm-202.66-1.6644 0.011584-31.778 21.864-11.667c12.025-6.4167 22.22-11.667 22.655-11.667s0.79086 14.041 0.79086 31.203v31.203l-21.646 11.797c-11.906 6.4882-22.106 11.997-22.667 12.241-0.56115 0.24444-1.0151-13.856-1.0087-31.333z" fill="#ceced0"/>
  <path d="m305.86 290c3e-3 -10.267 0.21138-14.29 0.46511-8.9417 0.25373 5.3488 0.25203 13.749-4e-3 18.667-0.25559 4.9179-0.46319 0.54167-0.46111-9.725zm4.4489 12.56c0.47148-1.8029 1.0759-2.4073 1.4087-1.4087 0.32064 0.96192-0.0509 2.3829-0.82574 3.1577-0.98943 0.98943-1.163 0.46886-0.58299-1.7489zm-300.53-3.0128c0-0.90324 1.1-1.6423 2.4444-1.6423 1.3444 0 2.4444 0.15032 2.4444 0.33404s-1.1 0.92275-2.4444 1.6423c-1.7554 0.93945-2.4444 0.84529-2.4444-0.33404zm418.89-3.547c-0.45323-0.73333-0.18864-1.3333 0.58797-1.3333s1.412 0.6 1.412 1.3333-0.26459 1.3333-0.58798 1.3333c-0.32338 0-0.9588-0.6-1.412-1.3333zm-404.67-3.7731c0-1.1287 4.3929-3.9353 8.7555-5.594 5.0525-1.921 3.8336-0.52346-2.7555 3.1593-3.3 1.8444-6 2.94-6 2.4347zm416-1.3154c0-0.63254 1.5-1.8335 3.3333-2.6688 1.8333-0.83532 3.3333-1.3006 3.3333-1.034s-1.5 1.4676-3.3333 2.6688c-1.8333 1.2012-3.3333 1.6666-3.3333 1.034zm-99.022-3.0769c0.90446-0.91123 1.9803-1.3209 2.3908-0.91038s-0.32948 1.1561-1.6444 1.6568c-1.9003 0.72357-2.0534 0.57042-0.7464-0.7464zm-301.47-4.798c1.5617-1.3034 3.1643-3.2699 3.5614-4.3699 0.4967-1.3759 0.75483-1.1307 0.82725 0.78597 0.06887 1.8228-1.1624 3.3336-3.5614 4.3699-3.6347 1.5701-3.6419 1.5632-0.82725-0.78597zm103.28 0.70368c1.1644-0.95714 2.467-2.6402 2.8947-3.7402 0.63045-1.6213 0.79764-1.5671 0.88297 0.28643 0.0579 1.2575-1.2447 2.9406-2.8947 3.7402-2.5448 1.2332-2.6788 1.1898-0.88298-0.28641zm103.32-0.88038c1.4116-1.3604 2.7898-1.891 3.0625-1.1791 0.51217 1.337-2.2221 3.5962-4.3958 3.6322-0.67831 0.0107-0.0783-1.0926 1.3333-2.4531zm104.58-1.5565c1.6541-3.0908 2.6506-3.3837 2.6506-0.77931 0 1.0216-0.91388 2.208-2.0308 2.6367-1.6569 0.6358-1.771 0.29377-0.61976-1.8574zm102.97 1.1498c2.0612-1.5871 2.3632-5.1339 2.7062-31.786l0.38614-30-0.0396 31.316c-0.0381 30.254-0.12987 31.332-2.7062 31.786-2.4824 0.43815-2.5064 0.34724-0.34659-1.3158zm-205.09-32.453c-1e-3 -15.4 0.19211-21.883 0.42934-14.406 0.23722 7.4768 0.23812 20.077 1e-3 28-0.23613 7.9232-0.43021 1.8058-0.43131-13.594zm103.9 16.667c0-6.2333 0.22968-8.7833 0.5104-5.6667 0.28071 3.1167 0.28071 8.2167 0 11.333-0.28072 3.1167-0.5104 0.56667-0.5104-5.6667zm-46.922 1.3333c0-1.8333 0.30264-2.5833 0.67252-1.6667 0.36988 0.91667 0.36988 2.4167 0 3.3333-0.36988 0.91666-0.67252 0.16666-0.67252-1.6667zm-0.21052-19.857c0-0.65488 0.98487-1.5686 2.1886-2.0305 1.83-0.70222 1.9124-0.50712 0.50341 1.1907-1.9202 2.3137-2.692 2.5545-2.692 0.83984zm-205.33-0.71549c0-0.36667 1.2-1.3089 2.6667-2.0938 1.4667-0.78493 2.6667-1.1272 2.6667-0.76049s-1.2 1.3089-2.6667 2.0938c-1.4667 0.78493-2.6667 1.1272-2.6667 0.76049zm104.98-0.92595c0.90446-0.91122 1.9803-1.3209 2.3908-0.91037s-0.32948 1.1561-1.6444 1.6568c-1.9003 0.72358-2.0534 0.57043-0.7464-0.7464zm-204.98-1.0252c0-0.65488 0.98487-1.5686 2.1886-2.0305 1.83-0.70223 1.9125-0.50712 0.50341 1.1907-1.9202 2.3136-2.692 2.5544-2.692 0.83984zm210-1.476c0.45323-0.73333 1.424-1.3333 2.1574-1.3333 0.73334 0 0.96252 0.6 0.5093 1.3333-0.45323 0.73333-1.424 1.3333-2.1574 1.3333-0.73333 0-0.96252-0.6-0.50929-1.3333zm100.78 0.84727c0.30556-0.26734 2.0556-1.2004 3.8889-2.0736 3.143-1.4969 3.1856-1.4691 0.74516 0.48605-2.124 1.7017-6.4638 3.1884-4.6341 1.5875zm-92.111-6.1806c2.585-1.6706 4-1.6706 4 0 0 0.73333-1.35 1.3241-3 1.3129-2.4259-0.0165-2.6173-0.26776-1-1.3129zm209.33 0c-1.2017-0.77662-1.3662-1.3007-0.41203-1.3129 0.87339-0.0107 1.9588 0.57958 2.412 1.3129 1.0231 1.6554 0.56149 1.6554-2 0zm-298.67-6.588c0-0.69005 0.6-1.6255 1.3333-2.0787 0.73333-0.45323 1.3333 0.11133 1.3333 1.2546 0 1.1433-0.6 2.0787-1.3333 2.0787-0.73334 0-1.3333-0.56458-1.3333-1.2546zm-102.67-1.936c0-0.28821 0.93116-0.88133 2.0692-1.3181 1.1866-0.45532 1.7218-0.2318 1.2546 0.52401-0.78301 1.267-3.3239 1.8739-3.3239 0.79405zm5.4444-2.6287c0.30556-0.26733 2.0556-1.2004 3.8889-2.0735 3.143-1.4969 3.1856-1.4691 0.74516 0.48605-2.124 1.7017-6.4638 3.1884-4.634 1.5875zm208.87-1.0127c0.90446-0.91122 1.9803-1.3209 2.3908-0.91037s-0.32948 1.1561-1.6444 1.6568c-1.9003 0.72358-2.0534 0.57043-0.7464-0.7464zm109.76-1.0346c-1.0264-1.9179-0.87584-2.7176 0.61975-3.2915 1.4164-0.54354 1.9756 0.17348 1.9756 2.5334 0 3.9461-0.76894 4.1707-2.5953 0.7581zm-205.4-0.27593c0-0.82637-1.027-1.1184-2.3333-0.6634-1.9451 0.67739-1.9026 0.47925 0.25484-1.1907 3.5069-2.7144 4.6302-2.5182 3.7982 0.6634-0.75672 2.8937-1.7197 3.5604-1.7197 1.1907zm306.09 0.28236c-0.40573-0.65648 0.12827-1.5259 1.1868-1.9321 1.2837-0.4926 1.6776-0.0952 1.183 1.1936-0.85947 2.2398-1.3478 2.392-2.3698 0.73847zm-410.44-2.9718c0.90445-0.91122 1.9803-1.3209 2.3908-0.91037 0.41052 0.41052-0.32948 1.1561-1.6444 1.6568-1.9003 0.72358-2.0534 0.57043-0.74639-0.7464zm214-11.835c0-2.5667 0.2744-3.6167 0.60977-2.3333 0.33536 1.2833 0.33536 3.3833 0 4.6667-0.33537 1.2833-0.60977 0.23333-0.60977-2.3333zm-95.564-1.9576c1.4235-1.0767 3.1882-1.9576 3.9215-1.9576 0.73334 0 0.16866 0.88092-1.2548 1.9576-1.4235 1.0767-3.1882 1.9576-3.9215 1.9576-0.73334 0-0.16866-0.88092 1.2548-1.9576zm-94.078-4.5551c0-1.197 4.0065-3.2586 4.7969-2.4682 0.22836 0.22835-0.75752 1.1476-2.1908 2.0427-1.4333 0.89512-2.606 1.0866-2.606 0.42551zm205.33 0.65725c0-0.67839 7.8295-5.3135 11-6.5121 4.473-1.691 2.2859 0.1128-4.3333 3.574-3.6667 1.9173-6.6667 3.2394-6.6667 2.9381zm104-0.85304c0-0.71032 0.9-1.2915 2-1.2915s2 0.23581 2 0.52401c0 0.28821-0.9 0.86937-2 1.2915-1.1 0.42211-2 0.1863-2-0.52401zm104 0.0418c0-0.73333 0.63541-1.3333 1.412-1.3333 0.77662 0 1.0412 0.6 0.58798 1.3333-0.45323 0.73333-1.0886 1.3333-1.412 1.3333s-0.58797-0.6-0.58797-1.3333zm-305.33-1.9062c0-0.36667 1.2-1.3089 2.6667-2.0938s2.6667-1.1272 2.6667-0.76049c0 0.36666-1.2 1.3089-2.6667 2.0938-1.4667 0.78494-2.6667 1.1272-2.6667 0.7605zm208.3-1.5254c1.2659-1.3253 2.6673-2.044 3.1142-1.5971 0.44693 0.44694-0.58879 1.5313-2.3016 2.4097-2.9771 1.5268-3.0129 1.4911-0.81261-0.8126zm-304.97-3.2351c0.45322-0.73333 1.424-1.3333 2.1574-1.3333 0.73333 0 0.96251 0.6 0.50929 1.3333-0.45322 0.73334-1.424 1.3333-2.1574 1.3333-0.73333 0-0.96251-0.6-0.50929-1.3333zm310 0.72087c0-0.36667 2.4-1.891 5.3333-3.3875s5.3333-2.4209 5.3333-2.0542c0 0.36666-2.4 1.891-5.3333 3.3875s-5.3333 2.4209-5.3333 2.0542zm-100.89-2.3875c4e-5 -0.91667 1.4305-1.7551 3.1788-1.8632 2.9616-0.18308 3.0147-0.0721 0.77769 1.6242-3.0203 2.2903-3.9566 2.3469-3.9565 0.23891zm207.56 1.194c0-1.0234 9.4109-6.5609 10.055-5.9166 0.31989 0.31989-1.8117 1.9267-4.7368 3.5707-2.9251 1.644-5.3184 2.6997-5.3184 2.3459zm-411.33-2.194c0.45322-0.73334 1.424-1.3333 2.1574-1.3333 0.73333 0 0.96251 0.6 0.50929 1.3333-0.45323 0.73333-1.424 1.3333-2.1574 1.3333s-0.96251-0.6-0.50929-1.3333zm109.33-2.8939c1.4667-0.81369 3.7167-2.3884 5-3.4994 1.4301-1.238 2.3333-1.4371 2.3333-0.51426 0 0.82816-1.7702 2.4212-3.9338 3.54-4.4773 2.3153-7.4709 2.7325-3.3996 0.47372zm104-0.37372c1.4667-1.1679 3.4167-3.1252 4.3333-4.3495 1.3523-1.8062 1.6667-1.8549 1.6667-0.2586 0 1.0821-1.95 3.0393-4.3333 4.3495-3.1754 1.7455-3.6207 1.8146-1.6667 0.2586zm-205.52-1.3991c1.1-1.1 2.6429-2 3.4286-2 0.97253 0 1.4286-9.3509 1.4286-29.291 0-25.439-0.26204-29.191-1.9923-28.527-1.0958 0.42049-1.6646 1.2948-1.2641 1.9429 0.40054 0.64809-0.30133 0.78326-1.5597 0.30037-1.5419-0.59168-1.9767-0.37429-1.3333 0.66667 0.60511 0.97908 0.25995 1.2781-0.94269 0.81657-1.0435-0.40045-2.8747 0.24928-4.0693 1.4438-1.1946 1.1946-2.1719 1.5741-2.1719 0.8435 0-0.73064 3.3-3.1158 7.3333-5.3003l7.3333-3.9719v61.982l-3.3961 1.5474c-4.5214 2.0601-5.1976 1.9506-2.7944-0.45264zm309.52 0.66667c0.45323-0.73334 1.424-1.3333 2.1574-1.3333 0.73333 0 0.96252 0.6 0.50929 1.3333-0.45323 0.73333-1.424 1.3333-2.1574 1.3333-0.73334 0-0.96252-0.6-0.5093-1.3333zm-248.67-13.255c0-1.4234 0.6-2.9588 1.3333-3.412 0.75621-0.46736 1.3333 0.65283 1.3333 2.588 0 1.8766-0.6 3.412-1.3333 3.412s-1.3333-1.1646-1.3333-2.588zm46.667-24.745c0-12.858-0.52137-22-1.2546-22-2.0767 0-2.8843 2.3828-1.087 3.2071 0.92124 0.42254 0.4095 0.46018-1.1372 0.0836-3.1306-0.7621-7.4829 0.4864-6.6114 1.8966 0.30863 0.49935-0.59482 0.90791-2.0076 0.90791s-2.5688-0.1628-2.5688-0.36176c0-0.19898 3.6-2.179 8-4.4002l8-4.0384v23.353c0 12.844-0.3 23.353-0.66667 23.353s-0.66667-9.9-0.66667-22zm160.21 6c0-1.8333 0.30264-2.5833 0.67252-1.6667s0.36988 2.4167 0 3.3333c-0.36988 0.91667-0.67252 0.16667-0.67252-1.6667zm-310.88-3.7581c0-1.6114 2.5296-3.4901 3.4543-2.5655 0.3356 0.3356-0.30432 1.3691-1.422 2.2968-1.2672 1.0517-2.0322 1.1528-2.0322 0.26869zm108.67-3.6101c2.9333-1.8067 5.9333-3.2849 6.6667-3.2849s-1.0667 1.4782-4 3.2849c-2.9333 1.8067-5.9333 3.2849-6.6667 3.2849-0.73333 0 1.0667-1.4782 4-3.2849zm99.333 2.7953c0-0.36667 1.2-1.3089 2.6667-2.0938 1.4667-0.78493 2.6667-1.1272 2.6667-0.76049 0 0.36666-1.2 1.3089-2.6667 2.0938-1.4667 0.78494-2.6667 1.1272-2.6667 0.7605zm103.64-0.92595c0.90445-0.91123 1.9803-1.3209 2.3908-0.91037s-0.32948 1.1561-1.6444 1.6568c-1.9003 0.72357-2.0534 0.57043-0.7464-0.7464zm-306.31-1.6919c0-0.28822 0.93116-0.88134 2.0693-1.3181 1.1866-0.45532 1.7218-0.2318 1.2546 0.52401-0.78301 1.267-3.3239 1.8739-3.3239 0.79406zm118.67-6.1631c-1.7778-1.167-1.7778-1.4588 0-2.6258 1.1-0.72211 2.6-1.3129 3.3333-1.3129s0.50647 0.52372-0.50416 1.1638c-1.0106 0.64012-1.4252 1.8309-0.92131 2.6463 1.1186 1.8098 0.6965 1.8383-1.9079 0.12866zm107.05-1.1944c-1.2729-2.0382-1.2173-2.6916 0.27804-3.2654 1.2918-0.49571 1.6143-0.0528 1.044 1.4335-0.54597 1.4228-0.30249 1.8277 0.71931 1.1962 1.0092-0.62372 1.2694-0.23733 0.7506 1.1146-0.9855 2.5682-0.8775 2.5867-2.7919-0.47884zm-213.05-0.11857c0.45322-0.73333 1.0886-1.3333 1.412-1.3333s0.58798 0.6 0.58798 1.3333-0.63541 1.3333-1.412 1.3333-1.0412-0.6-0.58798-1.3333zm416.09 0.14775c-0.48038-0.7773 2.2311-2.9509 6.1733-4.9485 4.732-2.3979 6.4381-2.8493 5.2194-1.3808-0.99579 1.1998-2.4484 2.1815-3.228 2.1815-0.77961 0-2.7428 1.2451-4.3628 2.767-1.8243 1.7139-3.2713 2.2394-3.802 1.3808zm-412.76-2.0051c0-0.28821 0.93116-0.88133 2.0693-1.3181 1.1866-0.45532 1.7218-0.2318 1.2546 0.52401-0.78301 1.267-3.3239 1.8739-3.3239 0.79405zm325.33-8.177c6.2333-3.2761 11.483-5.9586 11.667-5.9611 0.18333-3e-3 0.33333 1.5308 0.33333 3.4074s-0.5738 3.0574-1.2751 2.624c-0.70131-0.43343-0.95696-1.6171-0.56812-2.6304 0.39876-1.0391-3.5504 0.41744-9.0582 3.341-5.3709 2.8508-10.365 5.1816-11.099 5.1795-0.73333-3e-3 3.7667-2.6843 10-5.9603zm-110.56 4.2149c0.30556-0.26733 2.0556-1.2004 3.8889-2.0736 3.143-1.4969 3.1856-1.4691 0.74516 0.48606-2.124 1.7017-6.4638 3.1884-4.6341 1.5875zm16.87-2.9776c-0.43836-0.43836-0.44739-1.7082-0.02-2.8218 0.65688-1.7118 0.31592-1.778-2.2061-0.42829-4.498 2.4072-4.4996 0.99876-1e-3 -1.5826l3.9133-2.2463v3.938c0 4.0213-0.28136 4.5455-1.6859 3.141zm199.69-2.5711c2.9333-1.8067 5.9333-3.2807 6.6667-3.2757 0.73333 5e-3 -1.2779 1.502-4.4694 3.3265-7.4851 4.279-9.1641 4.2402-2.1972-0.0508zm-192.36-15.299c0-2.5667 0.2744-3.6167 0.60977-2.3333 0.33536 1.2833 0.33536 3.3833 0 4.6667-0.33537 1.2833-0.60977 0.23333-0.60977-2.3333zm101.69 2.6667c0.45322-0.73333 1.0886-1.3333 1.412-1.3333 0.32339 0 0.58798 0.6 0.58798 1.3333s-0.63542 1.3333-1.412 1.3333-1.0412-0.6-0.58797-1.3333zm-299.69-5.4988c0.90444-0.91123 1.9803-1.3209 2.3908-0.91038 0.41052 0.41051-0.32948 1.1561-1.6444 1.6568-1.9003 0.72358-2.0534 0.57043-0.74639-0.74639zm205.69 0.0868c0-0.77661 0.6-1.0412 1.3333-0.58798s1.3333 1.0886 1.3333 1.412-0.6 0.58798-1.3333 0.58798-1.3333-0.63541-1.3333-1.412zm7.0729-3.6335c1.8332-2.0257 7.5938-3.7724 7.5938-2.3026 0 0.54196-8.0272 4.6814-9.0782 4.6814-0.36765 0 0.30032-1.0705 1.4844-2.3789zm-308.41 0.3915c0-0.91235 8.1639-4.9599 8.7738-4.35 0.28931 0.28931-1.5664 1.5238-4.1239 2.7434-2.5575 1.2196-4.6499 1.9425-4.6499 1.6065zm102.67 0c0-0.91235 8.1639-4.9599 8.7738-4.35 0.28931 0.28931-1.5664 1.5238-4.1239 2.7434-2.5574 1.2196-4.6499 1.9425-4.6499 1.6065zm309.33 0c0-0.91235 8.1639-4.9599 8.7738-4.35 0.28931 0.28931-1.5664 1.5238-4.1239 2.7434-2.5574 1.2196-4.6499 1.9425-4.6499 1.6065zm-401.33-6.0127c0-0.73333 0.63541-1.3333 1.412-1.3333s1.0412 0.6 0.58798 1.3333c-0.45322 0.73334-1.0886 1.3333-1.412 1.3333s-0.58798-0.6-0.58798-1.3333zm207.25-0.59311c1.4235-1.1404 3.1735-2.0736 3.8889-2.0736 1.6941 0 0.93764 0.61586-3.1437 2.5596-3.143 1.4969-3.1856 1.4691-0.74516-0.48606zm204.75 1.3038c0-0.34111 4.2007-2.9398 9.3349-5.775 5.1342-2.8351 8.9342-5.5555 8.4444-6.0452-0.48977-0.48977-0.19048-0.89049 0.66507-0.89049 1.1388 0 1.5442-7.7694 1.5132-29-0.0367-25.075-0.29375-28.668-1.8993-26.55-1.0213 1.3478-2.9446 2.241-4.274 1.985-1.8615-0.3585-1.2718-1.1411 2.566-3.4055l4.983-2.94-0.0258 30.955-0.0258 30.955-10.641 5.6654c-5.8524 3.116-10.641 5.3864-10.641 5.0452zm-308-1.3324c0-0.36667 3-2.1869 6.6667-4.0449 3.6667-1.858 6.6667-3.0783 6.6667-2.7116 0 0.36666-3 2.1869-6.6667 4.0449-3.6667 1.858-6.6667 3.0783-6.6667 2.7116zm-99.022-2.2104c0.90445-0.91123 1.9803-1.3209 2.3908-0.91038 0.41052 0.41051-0.32948 1.1561-1.6444 1.6568-1.9003 0.72358-2.0534 0.57043-0.74639-0.74639zm277.9-2.5012c0-1.8333 0.30264-2.5833 0.67252-1.6667 0.36988 0.91667 0.36988 2.4167 0 3.3333-0.36988 0.91666-0.67252 0.16666-0.67252-1.6667zm33.234 2.1806c0.30556-0.26734 2.0556-1.2004 3.8889-2.0736 3.143-1.4969 3.1856-1.4691 0.74516 0.48606-2.124 1.7017-6.4638 3.1884-4.634 1.5875zm-101.44-1.3713c0-0.28821 0.93116-0.88134 2.0692-1.3181 1.1866-0.45533 1.7218-0.2318 1.2546 0.52401-0.78301 1.2669-3.3239 1.8739-3.3239 0.79405zm-200.67-2.7736c1.4667-1.1514 3.4167-3.0951 4.3333-4.3194 1.5529-2.074 1.6667-2.0744 1.6667-5e-3 0 1.2213-1.95 3.165-4.3333 4.3194-3.9243 1.9007-4.0816 1.9012-1.6667 5e-3zm206 0.0891c0-0.2666 1.5-1.4676 3.3333-2.6688 1.8333-1.2012 3.3333-1.6666 3.3333-1.034s-1.5 1.8335-3.3333 2.6688c-1.8333 0.83532-3.3333 1.3006-3.3333 1.034zm105.99-2.2641c1.4588-1.7567 2.8088-3.444 3-3.7496 0.19114-0.30555 0.34754 0.42334 0.34754 1.6198s-1.35 2.8837-3 3.7496l-3 1.5743zm-204.65-1.194c0-0.73334 0.63542-1.3333 1.412-1.3333s1.0412 0.6 0.58797 1.3333c-0.45322 0.73333-1.0886 1.3333-1.412 1.3333-0.32339 0-0.58798-0.6-0.58798-1.3333zm160.89 0.44444c-0.4889-0.48889-0.8889-8.8189-0.8889-18.511 0-16.759 0.13659-17.658 2.7894-18.352 2.6383-0.68992 2.6682-0.5955 0.55207 1.7428-1.9003 2.0998-2.1698 4.9985-1.7894 19.242 0.24635 9.2235 0.39792 16.769 0.33682 16.768-0.0611-8.6e-4 -0.51112-0.40157-1-0.89046zm46.331-28.444c0-13.567 0.198-19.117 0.43999-12.333 0.24198 6.7833 0.24198 17.883 0 24.667-0.24199 6.7833-0.43999 1.2333-0.43999-12.333zm63.447-8.588c0-1.0567 0.54404-2.2576 1.209-2.6685 0.66494-0.41095 0.89496 0.45364 0.51116 1.9213-0.81415 3.1133-1.7202 3.5069-1.7202 0.7472zm-413.9-0.5839c-0.41313-0.66846 0.14541-1.5594 1.2412-1.9799 1.0958-0.42049 1.9923-0.21877 1.9923 0.44827 0 1.8074-2.3695 2.9298-3.2335 1.5316zm205.92 0.0671c0.0259-1.0205 18.679-11.311 19.315-10.656 0.22875 0.23532-4.0287 2.9307-9.461 5.9898-5.4323 3.0591-9.8667 5.1591-9.8543 4.6667zm41.311-10.229c0-5.7778-0.56296-10-1.3333-10-0.73333 0-1.3333 0.7-1.3333 1.5556 0 0.85555-0.3789 1.1767-0.84198 0.71357-0.46309-0.46308-2.0355-0.20322-3.4942 0.57747-4.5344 2.4267-1.3648-1.0329 3.6653-4.0008l4.6709-2.7559v11.955c0 6.5753-0.3 11.955-0.66667 11.955s-0.66667-4.5-0.66667-10zm-242.67 6.8093c0-0.28821 0.93116-0.88133 2.0693-1.3181 1.1866-0.45533 1.7218-0.2318 1.2546 0.52402-0.78301 1.2669-3.3239 1.8739-3.3239 0.79404zm312.59-1.5184c1.4235-1.0767 3.1882-1.9576 3.9215-1.9576 0.73333 0 0.16865 0.88091-1.2548 1.9576-1.4235 1.0767-3.1882 1.9576-3.9215 1.9576s-0.16865-0.88092 1.2548-1.9576zm-201.92-0.41024c0-0.61562 1.6384-1.8658 3.641-2.7782 3.6318-1.6548 3.6346-1.6519 1.1267 1.1193-2.5936 2.8658-4.7676 3.6223-4.7676 1.6589zm209.44-2.3251c0.064-1.5533 0.37992-1.8692 0.80555-0.80556 0.38516 0.9625 0.3378 2.1125-0.1052 2.5556-0.44307 0.44305-0.75819-0.34445-0.70029-1.75zm98.561 1.5871c0-0.2882 0.93116-0.88133 2.0693-1.3181 1.1866-0.45532 1.7218-0.23179 1.2546 0.52402-0.78302 1.2669-3.3239 1.8739-3.3239 0.79404zm5.3333-2.7559c0-0.37494 3.75-2.5608 8.3333-4.8576 7.766-3.8916 8.1064-3.9549 5-0.92978-1.8333 1.7853-3.7657 3.0313-4.2942 2.7688-0.52847-0.26248-2.7785 0.46269-5 1.6115-2.2215 1.1488-4.0392 1.782-4.0392 1.407zm-410.67-1.3081c0-0.69492 19.628-11.412 20.901-11.412 1.3733 0-2.896 2.876-10.234 6.8942-6.481 3.549-10.667 5.3218-10.667 4.5178zm105.44 0.10194c0.30556-0.26733 2.0556-1.2004 3.8889-2.0736 3.143-1.4969 3.1856-1.4691 0.74516 0.48607-2.124 1.7017-6.4638 3.1884-4.634 1.5875zm103.89-1.4797c0-0.34784 1.95-1.584 4.3333-2.7469l4.3333-2.1145-3.3333 2.7173c-3.2094 2.6162-5.3333 3.4701-5.3333 2.1441zm107.15-2.7091c4.8347-2.5215 6.2933-2.4962 2.9261 0.0506-1.4235 1.0767-3.5235 1.9539-4.6667 1.9494-1.1432-5e-3 -0.35991-0.90452 1.7406-2zm-203.15 0.15086c0-0.2882 0.93116-0.88133 2.0693-1.3181 1.1866-0.45532 1.7218-0.23179 1.2546 0.52402-0.78302 1.2669-3.3239 1.8739-3.3239 0.79404zm6-3.476c0.45323-0.73333 1.424-1.3333 2.1574-1.3333 0.73333 0 0.96252 0.6 0.50929 1.3333s-1.424 1.3333-2.1574 1.3333c-0.73334 0-0.96252-0.6-0.5093-1.3333zm203.33 0.72801c0-0.3706 2.4-1.8982 5.3333-3.3947 4.6002-2.3468 5.3333-2.4314 5.3333-0.61507 0 1.1582-0.58237 1.7459-1.2942 1.3059-0.7118-0.43991-3.1118 0.14008-5.3333 1.2889-2.2215 1.1488-4.0392 1.7855-4.0392 1.4149zm-197.87-1.853c-0.4614-0.74656-0.1892-1.7589 0.60488-2.2497 2.05-1.267 3.3726 0.46847 1.6613 2.1798-0.95757 0.95757-1.7034 0.98058-2.2662 0.0699z" fill="#cecece"/>
 </g>
</svg>
